<svg version="1.1" preserveAspectRatio="none" xmlns="http://www.w3.org/2000/svg" width="500" height="500" viewBox="0 0 500 500"><rect width="100%" height="100%" fill="#F4F3EF" fill-opacity="1"/><svg viewBox="77.7775 160.472 372.6598 231.2568" width="333" height="206.6456172627152" x="83.5px" y="146.6772px" xmlns="http://www.w3.org/2000/svg" xmlns:xlink="http://www.w3.org/1999/xlink" preserveAspectRatio="none"><defs></defs><style>.companyName {fill:#364C63;fill-opacity:1;}.icon1 {fill:#F3B340;fill-opacity:1;}.icon2 {fill:#E66A2C;fill-opacity:1;}.icon3 {fill:#F094A7;fill-opacity:1;}.icon3-str {stroke:#F094A7;stroke-opacity:1;}.text {fill:#364C63;fill-opacity:1;}</style><defs></defs><g opacity="1" transform="rotate(0 189.5755 160.472)">
<svg width="149.0639" height="100.2568" x="189.5755" y="160.472" version="1.1" preserveAspectRatio="none" viewBox="43.5 62.000003814697266 112.99998474121094 76.00100708007812">
  <g transform="matrix(1 0 0 1 0 0)"><g><g><defs><path d="M153.128 131.287H127.49c.007-.065.021-.129.021-.196V86.632c0-.061-.013-2.362-.019-2.421l-3.872 1.901v44.979c0 .067.013.131.021.196h-14.004c.007-.062.02-.122.02-.185V92.908l-3.89 1.91v36.283c0 .064.013.123.02.185H91.802V101.28l-.653.32a3.377 3.377 0 0 1-3.237-.146v29.833H72.599V95.213l-3.89 2.222v33.852H50.245v-22.324l.554-1.235.226-2.402.104-3.283-.883-.82V65.357c0-1.854-1.51-3.357-3.373-3.357S43.5 63.503 43.5 65.357v69.287a3.365 3.365 0 0 0 3.373 3.357h106.255c1.863 0 3.372-1.503 3.372-3.357s-1.51-3.357-3.372-3.357z" data-color="1" id="id-IptOCySn2"></path></defs><use class="icon1" xlink:href="#id-IptOCySn2"></use></g><g><defs><path d="M146.656 72.912a3.373 3.373 0 0 0-2.5-1.727l-16.769-2.327a3.374 3.374 0 0 0-3.25 1.43 3.342 3.342 0 0 0-.158 3.534l3.029 5.383-33.93 16.66.119-13.345a3.352 3.352 0 0 0-1.669-2.926 3.383 3.383 0 0 0-3.382-.014l-37.901 21.644v7.74L68.709 98.42l3.89-2.222L86.4 88.316l-.115 12.942a3.352 3.352 0 0 0 1.579 2.872c.015.01.033.013.048.022a3.377 3.377 0 0 0 3.237.146l.653-.32 13.964-6.856 3.89-1.91 13.964-6.856 3.872-1.901 2.817-1.383 3.38 6.006a3.374 3.374 0 0 0 3.062 1.714 3.374 3.374 0 0 0 2.932-1.925l7.06-14.927a3.35 3.35 0 0 0-.087-3.028zm-10.286 9.194l-.005-.009.012-.006-.007.015z" data-color="2" id="id-IptOCySn3"></path></defs><use class="icon2" xlink:href="#id-IptOCySn3"></use></g></g></g>
</svg>
</g><g opacity="1" transform="rotate(0 185.4878 366.7288)">
<svg width="157.2392" height="25" x="185.4878" y="366.7288" version="1.1" preserveAspectRatio="none" viewBox="2.2 -30.16 240.72 38.28">
  <g transform="matrix(1 0 0 1 0 0)" class="text"><path id="id-6izo4zJp9" d="M27.16-2.68Q25.96-1.56 22.98-0.62Q20 0.32 17.52 0.32L17.52 0.32Q12.92 0.32 9.44-1.52Q5.96-3.36 4.08-6.58Q2.20-9.80 2.20-13.88L2.20-13.88Q2.20-18.80 4.22-22.32Q6.24-25.84 9.66-27.64Q13.08-29.44 17.16-29.44L17.16-29.44Q19.68-29.44 21.94-28.86Q24.20-28.28 25.92-27.32L25.92-27.32L24.40-23Q23.20-23.72 21.22-24.24Q19.24-24.76 17.76-24.76L17.76-24.76Q12.76-24.76 9.88-22Q7-19.24 7-14.28L7-14.28Q7-11.32 8.34-9.06Q9.68-6.80 12.10-5.56Q14.52-4.32 17.64-4.32L17.64-4.32Q19.04-4.32 20.32-4.58Q21.60-4.84 22.48-5.32L22.48-5.32L22.48-10.16L17-10.16L17-14.64L27.16-14.64L27.16-2.68Z M40.88-13Q41.56-14.36 42.80-15.44Q44.04-16.52 45.34-17.10Q46.64-17.68 47.52-17.68L47.52-17.68L47.32-13.20Q45.48-13.36 44.04-12.54Q42.60-11.72 41.80-10.30Q41.00-8.88 41.00-7.28L41.00-7.28L41.00 0L36.52 0L36.52-16.92L40.56-16.92L40.88-13Z M53.16-8.64Q53.16-11.16 54.38-13.24Q55.60-15.32 57.76-16.50Q59.92-17.68 62.68-17.68L62.68-17.68Q65.44-17.68 67.58-16.50Q69.72-15.32 70.88-13.26Q72.04-11.20 72.04-8.64L72.04-8.64Q72.04-6.08 70.88-4.02Q69.72-1.96 67.58-0.76Q65.44 0.44 62.64 0.44L62.64 0.44Q59.92 0.44 57.76-0.66Q55.60-1.76 54.38-3.82Q53.16-5.88 53.16-8.64L53.16-8.64ZM57.68-8.60Q57.68-6.32 59.08-4.78Q60.48-3.24 62.56-3.24L62.56-3.24Q64.72-3.24 66.10-4.76Q67.48-6.28 67.48-8.60L67.48-8.60Q67.48-10.92 66.10-12.46Q64.72-14 62.56-14L62.56-14Q60.48-14 59.08-12.42Q57.68-10.84 57.68-8.60L57.68-8.60Z M98.44-16.92L102.84-16.92L95.12 1L89.68-10.44L84.72 1L76.92-16.92L81.32-16.92L85.24-7.92L88.08-14.40L86.92-16.92L90.80-16.92L94.80-7.64L98.44-16.92Z M139.96-30.16L140.04-30.16L140.04 0L135.40 0L135.40-16.84L125.20-2.36L125.12-2.36L115.16-16.16L115.16 0L110.64 0L110.64-30.16L110.68-30.16L125.20-9.60L139.96-30.16Z M148.92-8.64Q148.92-11.16 150.14-13.24Q151.36-15.32 153.52-16.50Q155.68-17.68 158.44-17.68L158.44-17.68Q161.20-17.68 163.34-16.50Q165.48-15.32 166.64-13.26Q167.80-11.20 167.80-8.64L167.80-8.64Q167.80-6.08 166.64-4.02Q165.48-1.96 163.34-0.76Q161.20 0.44 158.40 0.44L158.40 0.44Q155.68 0.44 153.52-0.66Q151.36-1.76 150.14-3.82Q148.92-5.88 148.92-8.64L148.92-8.64ZM153.44-8.60Q153.44-6.32 154.84-4.78Q156.24-3.24 158.32-3.24L158.32-3.24Q160.48-3.24 161.86-4.76Q163.24-6.28 163.24-8.60L163.24-8.60Q163.24-10.92 161.86-12.46Q160.48-14 158.32-14L158.32-14Q156.24-14 154.84-12.42Q153.44-10.84 153.44-8.60L153.44-8.60Z M186.76-17.64Q189.12-17.64 190.70-16.22Q192.28-14.80 192.32-12.56L192.32-12.56L192.32 0L187.84 0L187.84-10.96Q187.76-12.28 187.06-13.04Q186.36-13.80 184.96-13.84L184.96-13.84Q182.88-13.84 181.54-12.06Q180.20-10.28 180.20-7.52L180.20-7.52L180.20 0L175.72 0L175.72-16.92L179.76-16.92L180.08-13.92Q181-15.68 182.74-16.66Q184.48-17.64 186.76-17.64L186.76-17.64Z M209.84-3.40Q211.72-3.40 213.64-4.72L213.64-4.72L215.68-1.40Q214.32-0.56 212.76-0.06Q211.20 0.44 209.76 0.44L209.76 0.44Q206.84 0.44 204.70-0.72Q202.56-1.88 201.42-3.92Q200.28-5.96 200.28-8.60L200.28-8.60Q200.28-11.08 201.56-13.16Q202.84-15.24 205.04-16.46Q207.24-17.68 209.84-17.68L209.84-17.68Q213.28-17.68 215.56-15.66Q217.84-13.64 218.60-9.96L218.60-9.96L205.56-5.56Q206.24-4.52 207.36-3.96Q208.48-3.40 209.84-3.40L209.84-3.40ZM209.48-14.16Q207.36-14.16 206.02-12.68Q204.68-11.20 204.68-8.84L204.68-8.84Q204.68-8.40 204.72-8.16L204.72-8.16L213.60-11.32Q213.08-12.56 212.08-13.36Q211.08-14.16 209.48-14.16L209.48-14.16Z M238.84-16.92L242.92-16.92L232.00 8.12L227.60 8.12L231.56-0.72L223.72-16.92L228.76-16.92L233.80-5.72L238.84-16.92Z"/></g>
</svg>
</g><g opacity="1" transform="rotate(0 77.7775 300.7288)">
<svg width="372.6598" height="50" x="77.7775" y="300.7288" version="1.1" preserveAspectRatio="none" viewBox="1.28 -31.56 238.79999999999998 32.04">
  <g transform="matrix(1 0 0 1 0 0)" class="companyName"><path id="id-D6z1nYkh12" d="M19.52-22.32Q15.68-24.44 12.84-24.44L12.84-24.44Q10.92-24.44 9.86-23.68Q8.80-22.92 8.80-21.40L8.80-21.40Q8.80-20 10.34-18.94Q11.88-17.88 14.44-16.92L14.44-16.92Q16.52-16.16 18-15.18Q19.48-14.20 20.46-12.48Q21.44-10.76 21.44-8.12L21.44-8.12Q21.44-5.84 20.26-3.90Q19.08-1.96 16.80-0.82Q14.52 0.32 11.36 0.32L11.36 0.32Q8.72 0.32 6.12-0.46Q3.52-1.24 1.28-2.84L1.28-2.84L3.84-7.36Q5.36-6.24 7.32-5.52Q9.28-4.80 10.84-4.80L10.84-4.80Q12.68-4.80 14.04-5.58Q15.40-6.36 15.40-8.12L15.40-8.12Q15.40-10.40 11.12-12.08L11.12-12.08Q8.60-13.08 6.92-14Q5.24-14.92 4.02-16.64Q2.80-18.36 2.80-20.96L2.80-20.96Q2.80-24.76 5.30-27.08Q7.80-29.40 11.96-29.60L11.96-29.60Q15.24-29.60 17.44-28.86Q19.64-28.12 21.72-26.76L21.72-26.76L19.52-22.32Z M27.84-25.16L33.44-25.16L33.44-17.56L37.68-17.56L37.68-13.20L33.44-13.20L33.44 0L27.84 0L27.84-13.20L25.12-13.20L25.12-17.56L27.84-17.56L27.84-25.16Z M40.60-8.96Q40.60-11.64 41.86-13.76Q43.12-15.88 45.42-17.10Q47.72-18.32 50.64-18.32L50.64-18.32Q53.56-18.32 55.78-17.10Q58-15.88 59.20-13.76Q60.40-11.64 60.40-8.96L60.40-8.96Q60.40-6.28 59.20-4.12Q58-1.96 55.78-0.74Q53.56 0.48 50.56 0.48L50.56 0.48Q47.64 0.48 45.38-0.66Q43.12-1.80 41.86-3.92Q40.60-6.04 40.60-8.96L40.60-8.96ZM46.24-8.92Q46.24-6.84 47.44-5.46Q48.64-4.08 50.48-4.08L50.48-4.08Q52.40-4.08 53.58-5.44Q54.76-6.80 54.76-8.92L54.76-8.92Q54.76-11.04 53.58-12.40Q52.40-13.76 50.48-13.76L50.48-13.76Q48.64-13.76 47.44-12.38Q46.24-11 46.24-8.92L46.24-8.92Z M79.64-1.56Q78.48-0.64 76.74-0.08Q75 0.48 73.32 0.48L73.32 0.48Q68.76 0.48 66.10-1.98Q63.44-4.44 63.44-8.76L63.44-8.76Q63.44-11.56 64.74-13.66Q66.04-15.76 68.16-16.86Q70.28-17.96 72.72-17.96L72.72-17.96Q77.08-17.96 79.80-15.64L79.80-15.64L77.08-12.04Q75.36-13.40 73.24-13.40L73.24-13.40Q71.48-13.40 70.26-12.08Q69.04-10.76 69.04-8.76L69.04-8.76Q69.04-6.76 70.36-5.42Q71.68-4.08 73.80-4.08L73.80-4.08Q75.64-4.08 76.84-5.08L76.84-5.08L79.64-1.56Z M95.40 0L91.12-7.28L89.56-6.12L89.56 0L83.96 0L83.96-31.56L89.56-31.56L89.56-11.80L97.88-17.92L101.28-14.92L95.08-10.24L101.92 0L95.40 0Z M128.80-2.44Q127.68-1.52 125.24-0.60Q122.80 0.32 119.92 0.32L119.92 0.32Q115.32 0.32 111.92-1.68Q108.52-3.68 106.72-7.06Q104.92-10.44 104.92-14.48L104.92-14.48Q104.92-18.92 106.72-22.40Q108.52-25.88 111.76-27.82Q115-29.76 119.24-29.76L119.24-29.76Q121.92-29.76 124.20-29.04Q126.48-28.32 128.20-27.24L128.20-27.24L125.92-21.76Q122.76-24.16 119.44-24.16L119.44-24.16Q117.20-24.16 115.24-22.92Q113.28-21.68 112.12-19.54Q110.96-17.40 110.96-14.80L110.96-14.80Q110.96-11.96 112.04-9.82Q113.12-7.68 115.12-6.48Q117.12-5.28 119.80-5.28L119.80-5.28Q121.96-5.28 123.68-5.98Q125.40-6.68 126.40-7.64L126.40-7.64L128.80-2.44Z M132.32-8.96Q132.32-11.64 133.58-13.76Q134.84-15.88 137.14-17.10Q139.44-18.32 142.36-18.32L142.36-18.32Q145.28-18.32 147.50-17.10Q149.72-15.88 150.92-13.76Q152.12-11.64 152.12-8.96L152.12-8.96Q152.12-6.28 150.92-4.12Q149.72-1.96 147.50-0.74Q145.28 0.48 142.28 0.48L142.28 0.48Q139.36 0.48 137.10-0.66Q134.84-1.80 133.58-3.92Q132.32-6.04 132.32-8.96L132.32-8.96ZM137.96-8.92Q137.96-6.84 139.16-5.46Q140.36-4.08 142.20-4.08L142.20-4.08Q144.12-4.08 145.30-5.44Q146.48-6.80 146.48-8.92L146.48-8.92Q146.48-11.04 145.30-12.40Q144.12-13.76 142.20-13.76L142.20-13.76Q140.36-13.76 139.16-12.38Q137.96-11 137.96-8.92L137.96-8.92Z M168.68-18.32Q171.16-18.32 172.82-16.84Q174.48-15.36 174.52-13.08L174.52-13.08L174.52 0L168.92 0L168.92-11Q168.80-13.56 166.36-13.56L166.36-13.56Q164.44-13.56 163.28-11.76Q162.12-9.96 162.12-7.12L162.12-7.12L162.12 0L156.52 0L156.52-17.48L161.60-17.48L162-14.68Q162.96-16.40 164.66-17.36Q166.36-18.32 168.68-18.32L168.68-18.32Z M181.92-25.16L187.52-25.16L187.52-17.56L191.76-17.56L191.76-13.20L187.52-13.20L187.52 0L181.92 0L181.92-13.20L179.20-13.20L179.20-17.56L181.92-17.56L181.92-25.16Z M201.52-13.48Q202.24-14.88 203.50-16Q204.76-17.12 206.08-17.74Q207.40-18.36 208.16-18.36L208.16-18.36L207.88-12.76Q207.64-12.80 207.20-12.80L207.20-12.80Q205.52-12.80 204.24-11.92Q202.96-11.04 202.28-9.66Q201.60-8.28 201.60-6.84L201.60-6.84L201.60 0L196.04 0L196.04-17.48L201.08-17.48L201.52-13.48Z M210.28-8.96Q210.28-11.64 211.54-13.76Q212.80-15.88 215.10-17.10Q217.40-18.32 220.32-18.32L220.32-18.32Q223.24-18.32 225.46-17.10Q227.68-15.88 228.88-13.76Q230.08-11.64 230.08-8.96L230.08-8.96Q230.08-6.28 228.88-4.12Q227.68-1.96 225.46-0.74Q223.24 0.48 220.24 0.48L220.24 0.48Q217.32 0.48 215.06-0.66Q212.80-1.80 211.54-3.92Q210.28-6.04 210.28-8.96L210.28-8.96ZM215.92-8.92Q215.92-6.84 217.12-5.46Q218.32-4.08 220.16-4.08L220.16-4.08Q222.08-4.08 223.26-5.44Q224.44-6.80 224.44-8.92L224.44-8.92Q224.44-11.04 223.26-12.40Q222.08-13.76 220.16-13.76L220.16-13.76Q218.32-13.76 217.12-12.38Q215.92-11 215.92-8.92L215.92-8.92Z M234.48-31.56L240.08-31.56L240.08 0L234.48 0L234.48-31.56Z"/></g>
</svg>
</g></svg></svg>